<svg xmlns="http://www.w3.org/2000/svg" viewBox="0 0 37 37" width="592" height="592" shape-rendering="crispEdges" role="img" aria-label="QR kod pro platbu na transparentni ucet"><rect width="37" height="37" fill="#ffffff"/><g fill="#000000"><rect x="4" y="4" width="7" height="1"/><rect x="14" y="4" width="1" height="1"/><rect x="17" y="4" width="1" height="1"/><rect x="20" y="4" width="2" height="1"/><rect x="23" y="4" width="2" height="1"/><rect x="26" y="4" width="7" height="1"/><rect x="4" y="5" width="1" height="1"/><rect x="10" y="5" width="1" height="1"/><rect x="12" y="5" width="3" height="1"/><rect x="18" y="5" width="3" height="1"/><rect x="24" y="5" width="1" height="1"/><rect x="26" y="5" width="1" height="1"/><rect x="32" y="5" width="1" height="1"/><rect x="4" y="6" width="1" height="1"/><rect x="6" y="6" width="3" height="1"/><rect x="10" y="6" width="1" height="1"/><rect x="13" y="6" width="2" height="1"/><rect x="17" y="6" width="2" height="1"/><rect x="20" y="6" width="2" height="1"/><rect x="24" y="6" width="1" height="1"/><rect x="26" y="6" width="1" height="1"/><rect x="28" y="6" width="3" height="1"/><rect x="32" y="6" width="1" height="1"/><rect x="4" y="7" width="1" height="1"/><rect x="6" y="7" width="3" height="1"/><rect x="10" y="7" width="1" height="1"/><rect x="13" y="7" width="1" height="1"/><rect x="15" y="7" width="5" height="1"/><rect x="21" y="7" width="1" height="1"/><rect x="23" y="7" width="1" height="1"/><rect x="26" y="7" width="1" height="1"/><rect x="28" y="7" width="3" height="1"/><rect x="32" y="7" width="1" height="1"/><rect x="4" y="8" width="1" height="1"/><rect x="6" y="8" width="3" height="1"/><rect x="10" y="8" width="1" height="1"/><rect x="12" y="8" width="1" height="1"/><rect x="14" y="8" width="1" height="1"/><rect x="18" y="8" width="1" height="1"/><rect x="21" y="8" width="1" height="1"/><rect x="24" y="8" width="1" height="1"/><rect x="26" y="8" width="1" height="1"/><rect x="28" y="8" width="3" height="1"/><rect x="32" y="8" width="1" height="1"/><rect x="4" y="9" width="1" height="1"/><rect x="10" y="9" width="1" height="1"/><rect x="13" y="9" width="1" height="1"/><rect x="15" y="9" width="3" height="1"/><rect x="21" y="9" width="2" height="1"/><rect x="26" y="9" width="1" height="1"/><rect x="32" y="9" width="1" height="1"/><rect x="4" y="10" width="7" height="1"/><rect x="12" y="10" width="1" height="1"/><rect x="14" y="10" width="1" height="1"/><rect x="16" y="10" width="1" height="1"/><rect x="18" y="10" width="1" height="1"/><rect x="20" y="10" width="1" height="1"/><rect x="22" y="10" width="1" height="1"/><rect x="24" y="10" width="1" height="1"/><rect x="26" y="10" width="7" height="1"/><rect x="13" y="11" width="1" height="1"/><rect x="16" y="11" width="3" height="1"/><rect x="20" y="11" width="5" height="1"/><rect x="4" y="12" width="1" height="1"/><rect x="6" y="12" width="1" height="1"/><rect x="8" y="12" width="1" height="1"/><rect x="10" y="12" width="1" height="1"/><rect x="14" y="12" width="1" height="1"/><rect x="16" y="12" width="1" height="1"/><rect x="18" y="12" width="2" height="1"/><rect x="21" y="12" width="2" height="1"/><rect x="24" y="12" width="1" height="1"/><rect x="28" y="12" width="1" height="1"/><rect x="31" y="12" width="1" height="1"/><rect x="5" y="13" width="1" height="1"/><rect x="8" y="13" width="1" height="1"/><rect x="11" y="13" width="1" height="1"/><rect x="13" y="13" width="1" height="1"/><rect x="16" y="13" width="1" height="1"/><rect x="18" y="13" width="2" height="1"/><rect x="21" y="13" width="1" height="1"/><rect x="23" y="13" width="1" height="1"/><rect x="25" y="13" width="1" height="1"/><rect x="27" y="13" width="2" height="1"/><rect x="4" y="14" width="1" height="1"/><rect x="7" y="14" width="1" height="1"/><rect x="10" y="14" width="4" height="1"/><rect x="15" y="14" width="1" height="1"/><rect x="17" y="14" width="1" height="1"/><rect x="27" y="14" width="4" height="1"/><rect x="32" y="14" width="1" height="1"/><rect x="4" y="15" width="1" height="1"/><rect x="7" y="15" width="1" height="1"/><rect x="9" y="15" width="1" height="1"/><rect x="11" y="15" width="1" height="1"/><rect x="15" y="15" width="2" height="1"/><rect x="19" y="15" width="1" height="1"/><rect x="21" y="15" width="1" height="1"/><rect x="23" y="15" width="1" height="1"/><rect x="25" y="15" width="4" height="1"/><rect x="30" y="15" width="2" height="1"/><rect x="4" y="16" width="3" height="1"/><rect x="9" y="16" width="2" height="1"/><rect x="13" y="16" width="1" height="1"/><rect x="20" y="16" width="4" height="1"/><rect x="25" y="16" width="2" height="1"/><rect x="30" y="16" width="1" height="1"/><rect x="32" y="16" width="1" height="1"/><rect x="7" y="17" width="1" height="1"/><rect x="9" y="17" width="1" height="1"/><rect x="11" y="17" width="3" height="1"/><rect x="15" y="17" width="3" height="1"/><rect x="19" y="17" width="3" height="1"/><rect x="23" y="17" width="1" height="1"/><rect x="29" y="17" width="1" height="1"/><rect x="31" y="17" width="2" height="1"/><rect x="5" y="18" width="2" height="1"/><rect x="9" y="18" width="3" height="1"/><rect x="13" y="18" width="1" height="1"/><rect x="18" y="18" width="5" height="1"/><rect x="27" y="18" width="5" height="1"/><rect x="4" y="19" width="2" height="1"/><rect x="8" y="19" width="2" height="1"/><rect x="11" y="19" width="1" height="1"/><rect x="14" y="19" width="1" height="1"/><rect x="17" y="19" width="2" height="1"/><rect x="20" y="19" width="1" height="1"/><rect x="22" y="19" width="4" height="1"/><rect x="27" y="19" width="1" height="1"/><rect x="29" y="19" width="1" height="1"/><rect x="31" y="19" width="1" height="1"/><rect x="4" y="20" width="1" height="1"/><rect x="6" y="20" width="1" height="1"/><rect x="8" y="20" width="1" height="1"/><rect x="10" y="20" width="2" height="1"/><rect x="13" y="20" width="1" height="1"/><rect x="15" y="20" width="1" height="1"/><rect x="18" y="20" width="4" height="1"/><rect x="26" y="20" width="1" height="1"/><rect x="28" y="20" width="2" height="1"/><rect x="31" y="20" width="2" height="1"/><rect x="6" y="21" width="4" height="1"/><rect x="11" y="21" width="1" height="1"/><rect x="14" y="21" width="3" height="1"/><rect x="18" y="21" width="2" height="1"/><rect x="21" y="21" width="3" height="1"/><rect x="25" y="21" width="1" height="1"/><rect x="29" y="21" width="2" height="1"/><rect x="4" y="22" width="1" height="1"/><rect x="8" y="22" width="5" height="1"/><rect x="14" y="22" width="1" height="1"/><rect x="17" y="22" width="1" height="1"/><rect x="20" y="22" width="2" height="1"/><rect x="23" y="22" width="1" height="1"/><rect x="26" y="22" width="1" height="1"/><rect x="28" y="22" width="5" height="1"/><rect x="5" y="23" width="2" height="1"/><rect x="8" y="23" width="1" height="1"/><rect x="11" y="23" width="3" height="1"/><rect x="19" y="23" width="1" height="1"/><rect x="21" y="23" width="3" height="1"/><rect x="25" y="23" width="1" height="1"/><rect x="28" y="23" width="1" height="1"/><rect x="30" y="23" width="2" height="1"/><rect x="4" y="24" width="1" height="1"/><rect x="7" y="24" width="1" height="1"/><rect x="10" y="24" width="1" height="1"/><rect x="12" y="24" width="3" height="1"/><rect x="20" y="24" width="1" height="1"/><rect x="24" y="24" width="5" height="1"/><rect x="30" y="24" width="1" height="1"/><rect x="32" y="24" width="1" height="1"/><rect x="12" y="25" width="1" height="1"/><rect x="16" y="25" width="2" height="1"/><rect x="21" y="25" width="2" height="1"/><rect x="24" y="25" width="1" height="1"/><rect x="28" y="25" width="1" height="1"/><rect x="30" y="25" width="1" height="1"/><rect x="4" y="26" width="7" height="1"/><rect x="18" y="26" width="1" height="1"/><rect x="21" y="26" width="1" height="1"/><rect x="23" y="26" width="2" height="1"/><rect x="26" y="26" width="1" height="1"/><rect x="28" y="26" width="1" height="1"/><rect x="31" y="26" width="2" height="1"/><rect x="4" y="27" width="1" height="1"/><rect x="10" y="27" width="1" height="1"/><rect x="14" y="27" width="2" height="1"/><rect x="17" y="27" width="2" height="1"/><rect x="21" y="27" width="2" height="1"/><rect x="24" y="27" width="1" height="1"/><rect x="28" y="27" width="1" height="1"/><rect x="32" y="27" width="1" height="1"/><rect x="4" y="28" width="1" height="1"/><rect x="6" y="28" width="3" height="1"/><rect x="10" y="28" width="1" height="1"/><rect x="12" y="28" width="3" height="1"/><rect x="18" y="28" width="1" height="1"/><rect x="21" y="28" width="2" height="1"/><rect x="24" y="28" width="5" height="1"/><rect x="30" y="28" width="3" height="1"/><rect x="4" y="29" width="1" height="1"/><rect x="6" y="29" width="3" height="1"/><rect x="10" y="29" width="1" height="1"/><rect x="13" y="29" width="1" height="1"/><rect x="15" y="29" width="4" height="1"/><rect x="20" y="29" width="2" height="1"/><rect x="23" y="29" width="1" height="1"/><rect x="25" y="29" width="1" height="1"/><rect x="28" y="29" width="4" height="1"/><rect x="4" y="30" width="1" height="1"/><rect x="6" y="30" width="3" height="1"/><rect x="10" y="30" width="1" height="1"/><rect x="12" y="30" width="2" height="1"/><rect x="15" y="30" width="4" height="1"/><rect x="20" y="30" width="1" height="1"/><rect x="22" y="30" width="1" height="1"/><rect x="24" y="30" width="1" height="1"/><rect x="26" y="30" width="2" height="1"/><rect x="29" y="30" width="2" height="1"/><rect x="32" y="30" width="1" height="1"/><rect x="4" y="31" width="1" height="1"/><rect x="10" y="31" width="1" height="1"/><rect x="14" y="31" width="3" height="1"/><rect x="20" y="31" width="1" height="1"/><rect x="23" y="31" width="1" height="1"/><rect x="25" y="31" width="1" height="1"/><rect x="27" y="31" width="1" height="1"/><rect x="29" y="31" width="1" height="1"/><rect x="31" y="31" width="2" height="1"/><rect x="4" y="32" width="7" height="1"/><rect x="12" y="32" width="1" height="1"/><rect x="16" y="32" width="1" height="1"/><rect x="19" y="32" width="1" height="1"/><rect x="21" y="32" width="2" height="1"/><rect x="24" y="32" width="1" height="1"/><rect x="26" y="32" width="1" height="1"/><rect x="30" y="32" width="1" height="1"/><rect x="32" y="32" width="1" height="1"/></g></svg>